<svg width="288" height="340" viewBox="0 0 288 340" fill="none" xmlns="http://www.w3.org/2000/svg">
<g clip-path="url(#clip0_26_756)">
<path d="M0.390137 163.832L135.011 336.665" stroke="#16F2F2"/>
<path d="M0.371704 0.893188L287.268 336.643" stroke="#C525EA"/>
<path d="M0.388794 152.024L145.632 337.249" stroke="#23E3F1"/>
<path d="M0.387573 140.619L155.951 337.726" stroke="#2FD5F1"/>
<path d="M0.386292 129.62L165.962 338.106" stroke="#3BC7F0"/>
<path d="M0.385132 119.026L175.658 338.399" stroke="#46BAF0"/>
<path d="M0.383972 108.837L185.033 338.612" stroke="#51ADEF"/>
<path d="M0.382874 99.0531L194.08 338.752" stroke="#5CA0EF"/>
<path d="M0.381836 89.6742L202.795 338.828" stroke="#6695EE"/>
<path d="M0.380798 80.7L211.171 338.845" stroke="#6F89EE"/>
<path d="M0.379822 72.1311L219.203 338.813" stroke="#787FED"/>
<path d="M0.378906 63.967L226.888 338.736" stroke="#8174ED"/>
<path d="M0.378052 56.208L234.219 338.623" stroke="#8A6BED"/>
<path d="M0.377197 48.854L241.193 338.478" stroke="#9161EC"/>
<path d="M0.376404 41.905L247.805 338.309" stroke="#9959EC"/>
<path d="M0.375671 35.361L254.051 338.119" stroke="#A050EC"/>
<path d="M0.374939 29.222L259.928 337.915" stroke="#A749EB"/>
<path d="M0.374268 23.488L265.433 337.701" stroke="#AD41EB"/>
<path d="M0.373657 18.1591L270.563 337.483" stroke="#B23BEB"/>
<path d="M0 13.9181L322.56 379.766" stroke="#B835EB"/>
<path d="M0.372559 8.71619L279.683 337.049" stroke="#BD2FEA"/>
<path d="M0.372131 4.60217L283.669 336.841" stroke="#C12AEA"/>
</g>
<defs>
<clipPath id="clip0_26_756">
<rect width="288" height="340" fill="white"/>
</clipPath>
</defs>
</svg>
