<svg width="285" height="519" viewBox="0 0 285 519" fill="none" xmlns="http://www.w3.org/2000/svg">
<g clip-path="url(#clip0_67_95)">
<path d="M141.213 517.209L284.264 274.552" stroke="#16F2F2"/>
<path d="M4.64307 518.267L282.196 1.33387" stroke="#C525EA"/>
<path d="M131.316 517.286L284.611 255.49" stroke="#23E3F1"/>
<path d="M121.757 517.36L284.872 236.969" stroke="#2FD5F1"/>
<path d="M112.538 517.431L285.055 219.003" stroke="#3BC7F0"/>
<path d="M103.658 517.5L285.171 201.602" stroke="#46BAF0"/>
<path d="M95.1184 517.566L285.223 184.778" stroke="#51ADEF"/>
<path d="M86.9175 517.63L285.218 168.543" stroke="#5CA0EF"/>
<path d="M79.0564 517.69L285.165 152.903" stroke="#6695EE"/>
<path d="M71.5345 517.749L285.067 137.872" stroke="#6F89EE"/>
<path d="M64.3524 517.804L284.931 123.46" stroke="#787FED"/>
<path d="M57.5095 517.857L284.764 109.671" stroke="#8174ED"/>
<path d="M51.0061 517.908L284.57 96.516" stroke="#8A6BED"/>
<path d="M44.8423 517.955L284.355 84.0027" stroke="#9161EC"/>
<path d="M39.0178 518L284.123 72.1391" stroke="#9959EC"/>
<path d="M33.5328 518.043L283.88 60.931" stroke="#A050EC"/>
<path d="M28.3873 518.083L283.63 50.3866" stroke="#A749EB"/>
<path d="M23.5813 518.12L283.377 40.5092" stroke="#AD41EB"/>
<path d="M19.1147 518.155L283.125 31.3052" stroke="#B23BEB"/>
<path d="M14.9875 518.187L282.878 22.7823" stroke="#B835EB"/>
<path d="M11.2001 518.216L282.639 14.9425" stroke="#BD2FEA"/>
<path d="M7.75183 518.243L282.41 7.79158" stroke="#C12AEA"/>
</g>
<defs>
<clipPath id="clip0_67_95">
<rect width="516.816" height="284.986" fill="white" transform="translate(3.89941 518.939) rotate(-90.4298)"/>
</clipPath>
</defs>
</svg>
