<svg width="149" height="172" viewBox="0 0 149 172" fill="none" xmlns="http://www.w3.org/2000/svg">
<g clip-path="url(#clip0_26_838)">
<path d="M150.104 89.0605L80.1309 2.02152" stroke="#16F2F2"/>
<path d="M149.981 171.009L0.830373 1.90381" stroke="#C525EA"/>
<path d="M150.096 94.9992L74.5998 1.71893" stroke="#23E3F1"/>
<path d="M150.087 100.735L69.2255 1.47007" stroke="#2FD5F1"/>
<path d="M150.078 106.267L64.012 1.27063" stroke="#3BC7F0"/>
<path d="M150.07 111.595L58.9622 1.11492" stroke="#46BAF0"/>
<path d="M150.063 116.72L54.0797 1.00013" stroke="#51ADEF"/>
<path d="M150.055 121.64L49.3678 0.921897" stroke="#5CA0EF"/>
<path d="M150.048 126.357L44.8287 0.87605" stroke="#6695EE"/>
<path d="M150.041 130.871L40.466 0.860381" stroke="#6F89EE"/>
<path d="M150.035 135.181L36.2827 0.869965" stroke="#787FED"/>
<path d="M150.029 139.287L32.2803 0.901929" stroke="#8174ED"/>
<path d="M150.023 143.189L28.4619 0.952728" stroke="#8A6BED"/>
<path d="M150.017 146.888L24.8296 1.01949" stroke="#9161EC"/>
<path d="M150.012 150.382L21.3858 1.09936" stroke="#9959EC"/>
<path d="M150.007 153.674L18.1321 1.18956" stroke="#A050EC"/>
<path d="M150.002 156.761L15.0711 1.28719" stroke="#A749EB"/>
<path d="M149.998 159.645L12.2037 1.39009" stroke="#AD41EB"/>
<path d="M149.994 162.325L9.53161 1.49547" stroke="#B23BEB"/>
<path d="M149.99 164.802L7.05737 1.60117" stroke="#B835EB"/>
<path d="M149.987 167.074L4.78135 1.70575" stroke="#BD2FEA"/>
<path d="M149.984 169.144L2.70526 1.80711" stroke="#C12AEA"/>
</g>
<defs>
<clipPath id="clip0_26_838">
<rect width="150" height="171" fill="white" transform="translate(150.174 171.458) rotate(-179.907)"/>
</clipPath>
</defs>
</svg>
